# xmcd
#
# Track frame offsets: 
#        150
#        16403
#        31927
#        48161
#
# Disc length: 843 seconds
#
# Revision: 0
# Processed by: cddbd v1.5.2PL0 Copyright (c) Steve Scherf et al.
# Submitted via: ExactAudioCopy v1.0b3
#
DISCID=24034904
DTITLE=Christoph Maria Herbst - Lass das mal den Papa machen
DYEAR=2014
DGENRE=Big Band
TTITLE0=Lass das mal den Papa machen (Betriebsfeier-Mix)
TTITLE1=Lass das mal den Papa machen (Big Band Version)
TTITLE2=Lass das mal den Papa machen (Instrumentaler Betriebsfeier-Mix
TTITLE2=zum Mitsingen)
TTITLE3=Lass das mal den Papa machen (Instrumentale Big Band Version z
TTITLE3=um Mitsingen)
EXTD=
EXTT0=
EXTT1=
EXTT2=
EXTT3=
PLAYORDER=
